<?xml version="1.0" standalone="no"?><!DOCTYPE svg PUBLIC "-//W3C//DTD SVG 1.1//EN" "http://www.w3.org/Graphics/SVG/1.1/DTD/svg11.dtd"><svg xmlns="http://www.w3.org/2000/svg" width="1000" height="800" viewBox="0 0 1000 800"><g class="sankey" transform="translate(100,10)"><g class="groups"/><g class="links"><g class="link" style="opacity: 0.8;"><path d="M1,78 A0 0 0 0 0 1,78 L266.3333333333333,78 A0 0 0 0 0 266.3333333333333,78 L266.3333333333333,85.0909090909091 A0 0 0 0 0 266.3333333333333,85.0909090909091 L1,85.0909090909091 A0 0 0 0 0 1,85.0909090909091 Z" style="fill: rgb(174, 199, 232);"/><title>Preprinted → 11book
1.00</title><text class="label" dy="0.35em" x="5" y="81.54545454545455"/></g><g class="link" style="opacity: 0.8;"><path d="M1,85.0909090909091 A276.77600889139353 276.77600889139353 0.18114425989802663 0 1 50.862645224590736,89.61946490136864 L217.74815245883576,120.18486687731756 A269.6850998004844 269.6850998004844 0.18114425989802663 0 0 266.3333333333333,124.59740259740259 L266.3333333333333,131.68831168831167 A276.77600889139353 276.77600889139353 0.18114425989802663 0 1 216.4706881087426,127.15975587785213 L49.58518087449757,96.59435390190322 A269.6850998004844 269.6850998004844 0.18114425989802663 0 0 1,92.18181818181819 Z" style="fill: rgb(174, 199, 232);"/><title>Preprinted → 17package_container
1.00</title><text class="label" dy="0.35em" x="5" y="88.63636363636364"/></g><g class="link" style="opacity: 0.8;"><path d="M1,92.18181818181819 A149.04969275738503 149.04969275738503 0.35502478553594874 0 1 52.81170105331287,101.47687400349001 L216.9865287532552,162.34195354415226 A141.95878366647597 141.95878366647597 0.35502478553594874 0 0 266.3333333333333,171.1948051948052 L266.3333333333333,178.28571428571428 A149.04969275738503 149.04969275738503 0.35502478553594874 0 1 214.52163228002047,168.99065846404244 L50.34680458007813,108.12557892338022 A141.95878366647597 141.95878366647597 0.35502478553594874 0 0 1,99.27272727272728 Z" style="fill: rgb(174, 199, 232);"/><title>Preprinted → 1money
1.00</title><text class="label" dy="0.35em" x="5" y="95.72727272727273"/></g><g class="link" style="opacity: 0.8;"><path d="M1,99.27272727272728 A111.57727770804694 111.57727770804694 0.5168351675934608 0 1 56.133808743156315,113.8461285932211 L215.27278771194733,204.29548336944228 A103.33399430578916 103.33399430578916 0.5168351675934608 0 0 266.3333333333333,217.79220779220782 L266.3333333333333,224.88311688311688 A110.42490339669826 110.42490339669826 0.5168351675934608 0 1 211.7689486358924,210.4602301983597 L52.629969667101356,120.01087542213853 A104.48636861713784 104.48636861713784 0.5168351675934608 0 0 1,106.36363636363637 Z" style="fill: rgb(174, 199, 232);"/><title>Preprinted → 1papercup
1.00</title><text class="label" dy="0.35em" x="5" y="102.81818181818183"/></g><g class="link" style="opacity: 0.8;"><path d="M1,106.36363636363637 A104.48636861713784 104.48636861713784 0.6726090255731975 0 1 66.09802541943995,129.12088952436935 L212.13942357236755,245.44426579192438 A86.98458663843277 86.98458663843277 0.6726090255731975 0 0 266.3333333333333,264.3896103896104 L266.3333333333333,271.48051948051955 A94.07549572934187 94.07549572934187 0.6726090255731975 0 1 207.72158240938904,250.99076659821927 L61.68018425646144,134.66739033066423 A97.39545952622875 97.39545952622875 0.6726090255731975 0 0 1,113.45454545454547 Z" style="fill: rgb(174, 199, 232);"/><title>Preprinted → 1sandpaper
1.00</title><text class="label" dy="0.35em" x="5" y="109.90909090909092"/></g><g class="link" style="opacity: 0.8;"><path d="M1,113.45454545454547 A97.39545952622875 97.39545952622875 0.8047621172868615 0 1 71.18957124562202,143.327418947055 L209.0077377649996,286.5890827260783 A79.54533164840855 79.54533164840855 0.8047621172868615 0 0 266.3333333333333,310.98701298701303 L266.3333333333333,318.07792207792215 A86.63624073931764 86.63624073931764 0.8047621172868615 0 1 203.89756249344538,291.50508724494654 L66.07939597406782,148.24342346592326 A90.30455043531965 90.30455043531965 0.8047621172868615 0 0 1,120.54545454545456 Z" style="fill: rgb(174, 199, 232);"/><title>Preprinted → 4brochure_leaflet
1.00</title><text class="label" dy="0.35em" x="5" y="117.00000000000001"/></g><g class="link" style="opacity: 0.8;"><path d="M1,120.54545454545456 A90.30455043531965 90.30455043531965 0.9120753417221725 0 1 72.41065047033472,155.5740533496275 L205.79062856460618,327.8867990258854 A76.56115299705041 76.56115299705041 0.9120753417221725 0 0 266.3333333333333,357.58441558441564 L266.3333333333333,364.67532467532476 A83.65206208795951 83.65206208795951 0.9120753417221725 0 1 200.18330946311184,332.2271865926303 L66.80333136884038,159.91444091637237 A83.21364134441056 83.21364134441056 0.9120753417221725 0 0 1,127.63636363636365 Z" style="fill: rgb(174, 199, 232);"/><title>Preprinted → 7tissue
1.00</title><text class="label" dy="0.35em" x="5" y="124.09090909090911"/></g><g class="link" style="opacity: 0.8;"><path d="M1,127.63636363636364 A83.21364134441056 83.21364134441056 0.9974995000560356 0 1 70.90922215946073,165.71453375408421 L202.38130678435166,369.3484146467232 A76.12273225350147 76.12273225350147 0.9974995000560356 0 0 266.3333333333333,404.18181818181824 L266.3333333333333,411.27272727272737 A83.21364134441056 83.21364134441056 0.9974995000560356 0 1 196.4241111738726,373.1945571550068 L64.95202654898164,169.56067626236782 A76.12273225350147 76.12273225350147 0.9974995000560356 0 0 1,134.72727272727272 Z" style="fill: rgb(174, 199, 232);"/><title>Preprinted → 8poster
1.00</title><text class="label" dy="0.35em" x="5" y="131.1818181818182"/></g><g class="link" style="opacity: 0.8;"><path d="M1,645.2727272727274 A143.54257964257962 143.54257964257962 0.35070822100959864 0 0 50.31591999254176,636.5352373179468 L214.58123930607377,576.4418434885544 A150.6334887334887 150.6334887334887 0.35070822100959864 0 1 266.3333333333333,567.2727272727274 L266.3333333333333,574.3636363636364 A143.54257964257962 143.54257964257962 0.35070822100959864 0 0 217.01741334079156,583.101126318417 L52.752094027259524,643.1945201478094 A150.6334887334887 150.6334887334887 0.35070822100959864 0 1 1,652.3636363636364 Z" style="fill: rgb(174, 199, 232);"/><title>Modifiable → 1bookmarkleaflet
1.00</title><text class="label" dy="0.35em" x="5" y="648.8181818181819"/></g><g class="link" style="opacity: 0.8;"><path d="M1,652.3636363636365 A164.43582343582335 164.43582343582335 0.3026798601767713 0 0 50.01491689571766,644.8885658271388 L215.20476314392417,593.3039089220749 A171.52673252673242 171.52673252673242 0.3026798601767713 0 1 266.3333333333333,585.5064935064936 L266.3333333333333,592.5974025974026 A164.43582343582335 164.43582343582335 0.3026798601767713 0 0 217.31841643761564,600.0724731339003 L52.12857018940913,651.6571300389642 A171.52673252673242 171.52673252673242 0.3026798601767713 0 1 1,659.4545454545455 Z" style="fill: rgb(174, 199, 232);"/><title>Modifiable → 1calligraph
1.00</title><text class="label" dy="0.35em" x="5" y="655.909090909091"/></g><g class="link" style="opacity: 0.8;"><path d="M1,659.4545454545456 A194.35493617493592 194.35493617493592 0.253729392528649 0 0 49.78613746313073,653.2318872305024 L215.76726646652497,610.1899474632131 A201.44584526584498 201.44584526584498 0.253729392528649 0 1 266.3333333333333,603.7402597402598 L266.3333333333333,610.8311688311688 A194.35493617493592 194.35493617493592 0.253729392528649 0 0 217.5471958702026,617.0538270552121 L51.56606686680834,660.0957668225013 A201.44584526584498 201.44584526584498 0.253729392528649 0 1 1,666.5454545454546 Z" style="fill: rgb(174, 199, 232);"/><title>Modifiable → 1handcraft
1.00</title><text class="label" dy="0.35em" x="5" y="663.0000000000001"/></g><g class="link" style="opacity: 0.8;"><path d="M1,638.1818181818182 A105.88023844395524 105.88023844395524 0.5002098652675118 0 0 51.78118962306153,625.2095754831996 L212.15127491324932,537.555292924894 A112.97114753486433 112.97114753486433 0.5002098652675118 0 1 266.3333333333333,523.7142857142858 L266.3333333333333,530.8051948051948 A105.88023844395524 105.88023844395524 0.5002098652675118 0 0 215.55214371027176,543.7774375038134 L55.18205842008398,631.431720062119 A112.97114753486433 112.97114753486433 0.5002098652675118 0 1 1,645.2727272727273 Z" style="fill: rgb(174, 199, 232);"/><title>Modifiable → 2newpaper
1.00</title><text class="label" dy="0.35em" x="5" y="641.7272727272727"/></g><g class="link" style="opacity: 0.8;"><path d="M1,666.5454545454547 A240.06931956931905 240.06931956931905 0.2039824353602504 0 0 49.63103336394846,661.568246269625 L216.26588886446166,627.0982456691981 A247.1602286602281 247.1602286602281 0.2039824353602504 0 1 266.3333333333333,621.9740259740261 L266.3333333333333,629.0649350649351 A240.06931956931905 240.06931956931905 0.2039824353602504 0 0 217.70229996938485,634.0421433407648 L51.067444468871656,668.5121439411917 A247.1602286602281 247.1602286602281 0.2039824353602504 0 1 1,673.6363636363637 Z" style="fill: rgb(174, 199, 232);"/><title>Modifiable → 2receipt
1.00</title><text class="label" dy="0.35em" x="5" y="670.0909090909092"/></g><g class="link" style="opacity: 0.8;"><path d="M1,673.6363636363639 A317.374244274243 317.374244274243 0.1535789804040708 0 0 49.55062974404535,669.9008403136377 L216.69796496278514,644.0267761665539 A324.4651533651521 324.4651533651521 0.1535789804040708 0 1 266.3333333333333,640.2077922077923 L266.3333333333333,647.2987012987013 A317.374244274243 317.374244274243 0.1535789804040708 0 0 217.78270358928796,651.0342246214275 L50.63536837054818,676.9082887685113 A324.4651533651521 324.4651533651521 0.1535789804040708 0 1 1,680.7272727272729 Z" style="fill: rgb(174, 199, 232);"/><title>Modifiable → 4letter_notice
1.00</title><text class="label" dy="0.35em" x="5" y="677.1818181818184"/></g><g class="link" style="opacity: 0.8;"><path d="M1,680.727272727273 A473.6555222555187 473.6555222555187 0.10267142684651365 0 0 49.54549354015664,678.232963667504 L217.06108445033308,660.973208813645 A480.7464313464278 480.7464313464278 0.10267142684651365 0 1 266.3333333333333,658.4415584415585 L266.3333333333333,665.5324675324675 A473.6555222555187 473.6555222555187 0.10267142684651365 0 0 217.7878397931767,668.0267765922365 L50.27224888300023,685.2865314460955 A480.7464313464278 480.7464313464278 0.10267142684651365 0 1 1,687.818181818182 Z" style="fill: rgb(174, 199, 232);"/><title>Modifiable → 5calendar
1.00</title><text class="label" dy="0.35em" x="5" y="684.2727272727275"/></g><g class="link" style="opacity: 0.8;"><path d="M1,687.8181818181821 A945.8422133421966 945.8422133421966 0.05142205059459504 0 0 49.61571437120265,686.5679464517901 L217.3531505485486,677.934932963754 A952.9331224331056 952.9331224331056 0.05142205059459504 0 1 266.3333333333333,676.6753246753248 L266.3333333333333,683.7662337662338 A945.8422133421966 945.8422133421966 0.05142205059459504 0 0 217.71761896213067,685.0164691326257 L49.98018278478474,693.6494826206618 A952.9331224331056 952.9331224331056 0.05142205059459504 0 1 1,694.9090909090911 Z" style="fill: rgb(174, 199, 232);"/><title>Modifiable → 7card
1.00</title><text class="label" dy="0.35em" x="5" y="691.3636363636366"/></g><g class="link" style="opacity: 0.8;"><path d="M1,694.9090909090912 A0 0 0 0 0 1,694.9090909090912 L266.3333333333333,694.909090909091 A0 0 0 0 1 266.3333333333333,694.909090909091 L266.3333333333333,702 A0 0 0 0 0 266.3333333333333,702 L1,702.0000000000002 A0 0 0 0 1 1,702.0000000000002 Z" style="fill: rgb(174, 199, 232);"/><title>Modifiable → 8article
1.00</title><text class="label" dy="0.35em" x="5" y="698.4545454545457"/></g><g class="link" style="opacity: 0.8;"><path d="M1,368.72727272727275 A208.29452455301492 208.29452455301492 0.24473981396161704 0 1 51.4705757299109,374.93436584463933 L217.58091253348903,416.4197975392653 A201.20361546210586 201.20361546210586 0.24473981396161704 0 0 266.3333333333333,422.4155844155845 L266.3333333333333,429.5064935064936 A208.29452455301492 208.29452455301492 0.24473981396161704 0 1 215.86275760342244,423.299400389127 L49.752420799844295,381.81396869450106 A201.20361546210586 201.20361546210586 0.24473981396161704 0 0 1,375.81818181818187 Z" style="fill: rgb(174, 199, 232);"/><title>User_generated → 2examsheet
1.00</title><text class="label" dy="0.35em" x="5" y="372.2727272727273"/></g><g class="link" style="opacity: 0.8;"><path d="M1,397.090909090909 A95.83685322085319 95.83685322085319 0.6397452865845693 0 1 58.21375009643339,416.0428532906921 L213.35279297876076,531.4892593888886 A88.74594412994409 88.74594412994409 0.6397452865845693 0 0 266.3333333333333,549.0389610389611 L266.3333333333333,556.1298701298701 A95.83685322085319 95.83685322085319 0.6397452865845693 0 1 209.11958323689993,537.1779259300871 L53.98054035457258,421.7315198318907 A88.74594412994409 88.74594412994409 0.6397452865845693 0 0 1,404.18181818181813 Z" style="fill: rgb(174, 199, 232);"/><title>User_generated → 2paperstick_tape
1.00</title><text class="label" dy="0.35em" x="5" y="400.63636363636357"/></g><g class="link" style="opacity: 0.8;"><path d="M1,382.9090909090909 A120.40851780366334 120.40851780366334 0.4599613953533572 0 1 54.45096835546193,395.42319207529096 L216.0301153558609,475.4696128483011 A113.31760871275425 113.31760871275425 0.4599613953533572 0 0 266.3333333333333,487.2467532467533 L266.3333333333333,494.33766233766244 A120.40851780366334 120.40851780366334 0.4599613953533572 0 1 212.8823649778714,481.82356117146236 L51.30321797747241,401.7771403984522 A113.31760871275425 113.31760871275425 0.4599613953533572 0 0 1,390 Z" style="fill: rgb(174, 199, 232);"/><title>User_generated → 3scratchpaperdraft
1.00</title><text class="label" dy="0.35em" x="5" y="386.45454545454544"/></g><g class="link" style="opacity: 0.8;"><path d="M1,389.99999999999994 A112.31383626120459 112.31383626120459 0.5041772831188818 0 1 55.2573829540256,403.97496189969434 L215.50147819355556,492.38786369446547 A105.22292717029549 105.22292717029549 0.5041772831188818 0 0 266.3333333333333,505.48051948051955 L266.3333333333333,512.5714285714287 A112.31383626120459 112.31383626120459 0.5041772831188818 0 1 212.0759503793077,498.5964666717343 L51.831855139777744,410.18356487696315 A105.22292717029549 105.22292717029549 0.5041772831188818 0 0 1,397.09090909090907 Z" style="fill: rgb(174, 199, 232);"/><title>User_generated → 7memo_post
1.00</title><text class="label" dy="0.35em" x="5" y="393.5454545454545"/></g><g class="link" style="opacity: 0.8;"><path d="M1,375.8181818181818 A176.1588585026083 176.1588585026083 0.2938448841945449 0 1 52.02167217950619,383.3688187034889 L217.3654326312671,433.40264897449686 A169.06794941169923 169.06794941169923 0.2938448841945449 0 0 266.3333333333333,440.6493506493507 L266.3333333333333,447.74025974025983 A176.1588585026083 176.1588585026083 0.2938448841945449 0 1 215.31166115382715,440.18962285495275 L49.967900702066196,390.1557925839448 A169.06794941169923 169.06794941169923 0.2938448841945449 0 0 1,382.90909090909093 Z" style="fill: rgb(174, 199, 232);"/><title>User_generated → 8notebook
1.00</title><text class="label" dy="0.35em" x="5" y="379.3636363636364"/></g><g class="link" style="opacity: 0.8;"><path d="M267.3333333333333,78 A0 0 0 0 0 267.3333333333333,78 L532.6666666666666,78 A0 0 0 0 0 532.6666666666666,78 L532.6666666666666,85.0909090909091 A0 0 0 0 0 532.6666666666666,85.0909090909091 L267.3333333333333,85.0909090909091 A0 0 0 0 0 267.3333333333333,85.0909090909091 Z" style="fill: rgb(174, 199, 232);"/><title>11book → R.orientation
1.00</title><text class="label" dy="0.35em" x="271.3333333333333" y="81.54545454545455"/></g><g class="link" style="opacity: 0.8;"><path d="M267.3333333333333,92.18181818181819 A97.9497086980106 97.9497086980106 0.6356542485278424 0 1 325.48647740608095,111.3130184666433 L479.6773020558369,225.0766689222893 A89.25214466874844 89.25214466874844 0.6356542485278424 0 0 532.6666666666666,242.5090909090909 L532.6666666666666,249.59999999999997 A96.34305375965754 96.34305375965754 0.6356542485278424 0 1 475.4674002250746,230.78260603295575 L321.27657557531865,117.0189555773098 A90.8587996071015 90.8587996071015 0.6356542485278424 0 0 267.3333333333333,99.27272727272728 Z" style="fill: rgb(174, 199, 232);"/><title>11book → R.size
1.00</title><text class="label" dy="0.35em" x="271.3333333333333" y="95.72727272727273"/></g><g class="link" style="opacity: 0.8;"><path d="M267.3333333333333,99.27272727272728 A90.8587996071015 90.8587996071015 0.8805462990042039 0 1 337.3933579092218,132.27900383658258 L473.20775902271663,296.75169714778355 A77.11052068825654 77.11052068825654 0.8805462990042039 0 0 532.6666666666666,324.76363636363635 L532.6666666666666,331.8545454545455 A84.20142977916564 84.20142977916564 0.8805462990042039 0 1 467.74005234683347,301.266691659634 L331.9256512333386,136.793998348433 A83.76789051619241 83.76789051619241 0.8805462990042039 0 0 267.3333333333333,106.36363636363637 Z" style="fill: rgb(174, 199, 232);"/><title>11book → R.spatiality
1.00</title><text class="label" dy="0.35em" x="271.3333333333333" y="102.81818181818183"/></g><g class="link" style="opacity: 0.8;"><path d="M267.3333333333333,106.36363636363637 A83.76789051619241 83.76789051619241 1.0502083782163256 0 1 340.00423085194825,148.46619194331632 L466.14732345703436,368.47958603587495 A76.67698142528332 76.67698142528332 1.0502083782163256 0 0 532.6666666666666,407.0181818181818 L532.6666666666666,414.1090909090909 A83.76789051619241 83.76789051619241 1.0502083782163256 0 1 459.9957691480517,372.006535329411 L333.8526765429656,151.99314123685232 A76.67698142528332 76.67698142528332 1.0502083782163256 0 0 267.3333333333333,113.45454545454547 Z" style="fill: rgb(174, 199, 232);"/><title>11book → R.texture
1.00</title><text class="label" dy="0.35em" x="271.3333333333333" y="109.90909090909092"/></g><g class="link" style="opacity: 0.8;"><path d="M267.3333333333333,85.0909090909091 A155.31701661022413 155.31701661022413 0.3385766532270953 0 1 318.92108641590266,93.9085080210875 L483.43412278973614,151.8395089336805 A148.22610751931506 148.22610751931506 0.3385766532270953 0 0 532.6666666666666,160.25454545454545 L532.6666666666666,167.34545454545452 A155.31701661022413 155.31701661022413 0.3385766532270953 0 1 481.0789135840973,158.52785561527614 L316.5658772102638,100.59685470268312 A148.22610751931506 148.22610751931506 0.3385766532270953 0 0 267.3333333333333,92.18181818181819 Z" style="fill: rgb(174, 199, 232);"/><title>11book → R.permeability
1.00</title><text class="label" dy="0.35em" x="271.3333333333333" y="88.63636363636364"/></g><g class="link" style="opacity: 0.8;"><path d="M267.3333333333333,124.59740259740259 A269.6850998004844 269.6850998004844 0.18114425989802663 0 0 315.91851420783087,120.18486687731756 L482.8040214420759,89.61946490136864 A276.77600889139353 276.77600889139353 0.18114425989802663 0 1 532.6666666666666,85.0909090909091 L532.6666666666666,92.18181818181819 A269.6850998004844 269.6850998004844 0.18114425989802663 0 0 484.0814857921691,96.59435390190322 L317.19597855792404,127.15975587785213 A276.77600889139353 276.77600889139353 0.18114425989802663 0 1 267.3333333333333,131.68831168831167 Z" style="fill: rgb(174, 199, 232);"/><title>17package_container → R.orientation
1.00</title><text class="label" dy="0.35em" x="271.3333333333333" y="128.14285714285714"/></g><g class="link" style="opacity: 0.8;"><path d="M267.3333333333333,138.7792207792208 A115.45996660662108 115.45996660662108 0.48584000593537713 0 1 321.2475179659219,152.13989951268775 L482.0635914443439,237.0598598573213 A108.36905751571199 108.36905751571199 0.48584000593537713 0 0 532.6666666666666,249.6 L532.6666666666666,256.6909090909091 A115.45996660662108 115.45996660662108 0.48584000593537713 0 1 478.752482034078,243.3302303574421 L317.936408555656,158.41027001280855 A108.36905751571199 108.36905751571199 0.48584000593537713 0 0 267.3333333333333,145.87012987012986 Z" style="fill: rgb(174, 199, 232);"/><title>17package_container → R.size
1.00</title><text class="label" dy="0.35em" x="271.3333333333333" y="142.32467532467533"/></g><g class="link" style="opacity: 0.8;"><path d="M267.3333333333333,145.8701298701299 A90.24642492926432 90.24642492926432 0.7600806237912718 0 1 329.5113045228743,170.70770898121796 L474.65357552171855,308.6806670981897 A84.20142977916564 84.20142977916564 0.7600806237912718 0 0 532.6666666666666,331.8545454545454 L532.6666666666666,338.94545454545454 A91.29233887007473 91.29233887007473 0.7600806237912718 0 1 469.7680818137099,313.82001948584957 L324.62581081486564,175.84706136887777 A83.15551583835523 83.15551583835523 0.7600806237912718 0 0 267.3333333333333,152.96103896103895 Z" style="fill: rgb(174, 199, 232);"/><title>17package_container → R.spatiality
1.00</title><text class="label" dy="0.35em" x="271.3333333333333" y="149.41558441558442"/></g><g class="link" style="opacity: 0.8;"><path d="M267.3333333333333,152.96103896103898 A83.15551583835523 83.15551583835523 0.9758040153681087 0 1 336.19880730280636,189.50768966299788 L463.2940528879939,377.29330299808447 A83.76789051619241 83.76789051619241 0.9758040153681087 0 0 532.6666666666666,414.10909090909087 L532.6666666666666,421.2 A90.8587996071015 90.8587996071015 0.9758040153681087 0 1 457.4216966107611,381.2677744709701 L330.32645102557353,193.48216113588344 A76.06460674744613 76.06460674744613 0.9758040153681087 0 0 267.3333333333333,160.05194805194805 Z" style="fill: rgb(174, 199, 232);"/><title>17package_container → R.texture
1.00</title><text class="label" dy="0.35em" x="271.3333333333333" y="156.5064935064935"/></g><g class="link" style="opacity: 0.8;"><path d="M267.3333333333333,131.6883116883117 A305.0553507603508 305.0553507603508 0.16370503586754293 0 1 317.04967337089556,135.76683184406238 L484.10596624224473,163.36173821982118 A297.96444166944167 297.96444166944167 0.16370503586754293 0 0 532.6666666666666,167.34545454545454 L532.6666666666666,174.4363636363636 A305.0553507603508 305.0553507603508 0.16370503586754293 0 1 482.9503266291044,170.35784348061293 L315.8940337577552,142.76293710485413 A297.96444166944167 297.96444166944167 0.16370503586754293 0 0 267.3333333333333,138.77922077922076 Z" style="fill: rgb(174, 199, 232);"/><title>17package_container → R.permeability
1.00</title><text class="label" dy="0.35em" x="271.3333333333333" y="135.23376623376623"/></g><g class="link" style="opacity: 0.8;"><path d="M267.3333333333333,171.1948051948052 A141.95878366647597 141.95878366647597 0.35502478553594874 0 0 316.68013791341144,162.34195354415226 L480.8549656133538,101.47687400349001 A149.04969275738503 149.04969275738503 0.35502478553594874 0 1 532.6666666666666,92.18181818181819 L532.6666666666666,99.27272727272728 A141.95878366647597 141.95878366647597 0.35502478553594874 0 0 483.3198620865885,108.12557892338022 L319.14503438664616,168.99065846404244 A149.04969275738503 149.04969275738503 0.35502478553594874 0 1 267.3333333333333,178.28571428571428 Z" style="fill: rgb(174, 199, 232);"/><title>1money → R.orientation
1.00</title><text class="label" dy="0.35em" x="271.3333333333333" y="174.74025974025975"/></g><g class="link" style="opacity: 0.8;"><path d="M267.3333333333333,185.3766233766234 A162.32325979575972 162.32325979575972 0.32200837411502947 0 1 318.70415597077636,193.71975701230338 L483.5399206557382,248.71223586723877 A155.23235070485066 155.23235070485066 0.32200837411502947 0 0 532.6666666666666,256.6909090909091 L532.6666666666666,263.7818181818182 A162.32325979575972 162.32325979575972 0.32200837411502947 0 1 481.2958440292236,255.4386845461382 L316.46007934426177,200.4462056912028 A155.23235070485066 155.23235070485066 0.32200837411502947 0 0 267.3333333333333,192.46753246753246 Z" style="fill: rgb(174, 199, 232);"/><title>1money → R.size
1.00</title><text class="label" dy="0.35em" x="271.3333333333333" y="188.92207792207793"/></g><g class="link" style="opacity: 0.8;"><path d="M267.3333333333333,192.4675324675325 A97.61173920900063 97.61173920900063 0.6210792466282712 0 1 324.1348926158239,210.6964366649032 L479.5424498420614,321.8966926577753 A91.29233887007473 91.29233887007473 0.6210792466282712 0 0 532.6666666666666,338.9454545454545 L532.6666666666666,346.0363636363636 A98.38324796098382 98.38324796098382 0.6210792466282712 0 1 475.416156259364,327.66338087588866 L320.00859903312653,216.4631248830166 A90.52083011809154 90.52083011809154 0.6210792466282712 0 0 267.3333333333333,199.55844155844156 Z" style="fill: rgb(174, 199, 232);"/><title>1money → R.spatiality
1.00</title><text class="label" dy="0.35em" x="271.3333333333333" y="196.01298701298703"/></g><g class="link" style="opacity: 0.8;"><path d="M267.3333333333333,199.5584415584416 A84.43738590071314 84.43738590071314 0.8815758285529431 0 1 332.49720723554316,230.29907079915856 L462.54711834875366,388.1215639235591 A90.8587996071015 90.8587996071015 0.8815758285529431 0 0 532.6666666666666,421.19999999999993 L532.6666666666666,428.29090909090905 A97.9497086980106 97.9497086980106 0.8815758285529431 0 1 457.0747662511252,392.63092687802595 L327.0248551379147,234.80843375362545 A77.34647680980405 77.34647680980405 0.8815758285529431 0 0 267.3333333333333,206.64935064935065 Z" style="fill: rgb(174, 199, 232);"/><title>1money → R.texture
1.00</title><text class="label" dy="0.35em" x="271.3333333333333" y="203.10389610389612"/></g><g class="link" style="opacity: 0.8;"><path d="M267.3333333333333,178.2857142857143 A996.4545454545455 996.4545454545455 0.015400331218641261 0 0 282.678456793199,178.16755195838672 L517.2123451746991,174.55536682324157 A1003.5454545454545 1003.5454545454545 0.015400331218641261 0 1 532.6666666666666,174.43636363636364 L532.6666666666666,181.5272727272727 A996.4545454545455 996.4545454545455 0.015400331218641261 0 0 517.3215432068009,181.64543505460028 L282.787654825301,185.25762018974544 A1003.5454545454545 1003.5454545454545 0.015400331218641261 0 1 267.3333333333333,185.37662337662337 Z" style="fill: rgb(174, 199, 232);"/><title>1money → R.permeability
1.00</title><text class="label" dy="0.35em" x="271.3333333333333" y="181.83116883116884"/></g><g class="link" style="opacity: 0.8;"><path d="M267.3333333333333,217.79220779220782 A103.33399430578916 103.33399430578916 0.5175661942729448 0 0 318.45953874658915,204.2581327471309 L476.95668851634184,114.02021379068037 A112.59851026355882 112.59851026355882 0.5175661942729448 0 1 532.6666666666666,99.27272727272728 L532.6666666666666,106.36363636363637 A105.50760117264973 105.50760117264973 0.5175661942729448 0 0 480.46503325017386,120.18239757276044 L321.96788348042116,210.42031652921094 A110.42490339669826 110.42490339669826 0.5175661942729448 0 1 267.3333333333333,224.88311688311688 Z" style="fill: rgb(174, 199, 232);"/><title>1papercup → R.orientation
1.00</title><text class="label" dy="0.35em" x="271.3333333333333" y="221.33766233766235"/></g><g class="link" style="opacity: 0.8;"><path d="M267.3333333333333,231.974025974026 A340.31912759568837 340.31912759568837 0.14620181914302122 0 1 316.911545283158,235.60470781110405 L484.1214692179948,260.2267854421818 A333.22821850477925 333.22821850477925 0.14620181914302122 0 0 532.6666666666666,263.78181818181815 L532.6666666666666,270.8727272727273 A340.31912759568837 340.31912759568837 0.14620181914302122 0 1 483.08845471684197,267.24204543564923 L315.87853078200516,242.6199678045715 A333.22821850477925 333.22821850477925 0.14620181914302122 0 0 267.3333333333333,239.06493506493507 Z" style="fill: rgb(174, 199, 232);"/><title>1papercup → R.size
1.00</title><text class="label" dy="0.35em" x="271.3333333333333" y="235.51948051948054"/></g><g class="link" style="opacity: 0.8;"><path d="M267.3333333333333,239.0649350649351 A118.31161042661049 118.31161042661049 0.47052535427864983 0 1 320.97044758223194,251.9218294434302 L482.2442487579346,333.9500366510482 A111.22070133570139 111.22070133570139 0.47052535427864983 0 0 532.6666666666666,346.03636363636355 L532.6666666666666,353.12727272727267 A118.31161042661049 118.31161042661049 0.47052535427864983 0 1 479.029552417768,340.2703783487775 L317.75575124206534,258.24217114115953 A111.22070133570139 111.22070133570139 0.47052535427864983 0 0 267.3333333333333,246.15584415584416 Z" style="fill: rgb(174, 199, 232);"/><title>1papercup → R.spatiality
1.00</title><text class="label" dy="0.35em" x="271.3333333333333" y="242.61038961038963"/></g><g class="link" style="opacity: 0.8;"><path d="M267.3333333333333,246.1558441558442 A88.84612937180235 88.84612937180235 0.7633035164970452 0 1 328.75374554033897,270.80565222593526 L464.95283910517793,401.1153693459713 A97.9497086980106 97.9497086980106 0.7633035164970452 0 0 532.6666666666666,428.290909090909 L532.6666666666666,435.3818181818181 A105.04061778891969 105.04061778891969 0.7633035164970452 0 1 460.050807217402,406.2389496475539 L323.85171365256303,275.92923252751785 A81.75522028089325 81.75522028089325 0.7633035164970452 0 0 267.3333333333333,253.24675324675326 Z" style="fill: rgb(174, 199, 232);"/><title>1papercup → R.texture
1.00</title><text class="label" dy="0.35em" x="271.3333333333333" y="249.70129870129873"/></g><g class="link" style="opacity: 0.8;"><path d="M267.3333333333333,224.8831168831169 A246.5298527433105 246.5298527433105 0.19851313848448582 0 0 315.9519511521351,220.04148953572354 L482.64963727521956,186.50815923127692 A253.62076183421956 253.62076183421956 0.19851313848448582 0 1 532.6666666666666,181.52727272727273 L532.6666666666666,188.6181818181818 A246.5298527433105 246.5298527433105 0.19851313848448582 0 0 484.04804884786483,193.45980916557517 L317.3503627247804,226.9931394700218 A253.62076183421956 253.62076183421956 0.19851313848448582 0 1 267.3333333333333,231.97402597402598 Z" style="fill: rgb(174, 199, 232);"/><title>1papercup → R.permeability
1.00</title><text class="label" dy="0.35em" x="271.3333333333333" y="228.42857142857144"/></g><g class="link" style="opacity: 0.8;"><path d="M267.3333333333333,264.3896103896104 A86.98458663843277 86.98458663843277 0.6738051521204467 0 0 321.60858785043666,245.37939436071454 L466.83371707827996,129.42200070719315 A105.50760117264973 105.50760117264973 0.6738051521204467 0 1 532.6666666666666,106.36363636363637 L532.6666666666666,113.45454545454547 A98.41669208174063 98.41669208174063 0.6738051521204467 0 0 471.2581893961916,134.96321324991072 L326.0330601683483,250.92060690343212 A94.07549572934187 94.07549572934187 0.6738051521204467 0 1 267.3333333333333,271.48051948051955 Z" style="fill: rgb(174, 199, 232);"/><title>1sandpaper → R.orientation
1.00</title><text class="label" dy="0.35em" x="271.3333333333333" y="267.935064935065"/></g><g class="link" style="opacity: 0.8;"><path d="M267.3333333333333,278.57142857142856 A996.4545454545455 996.4545454545455 0.033145502652115244 0 0 300.35527288620415,278.02411407024425 L499.40973840061963,271.4239365399998 A1003.5454545454545 1003.5454545454545 0.033145502652115244 0 1 532.6666666666666,270.8727272727272 L532.6666666666666,277.96363636363634 A996.4545454545455 996.4545454545455 0.033145502652115244 0 0 499.64472711379574,278.51095086482064 L300.59026159938026,285.1111283950651 A1003.5454545454545 1003.5454545454545 0.033145502652115244 0 1 267.3333333333333,285.6623376623377 Z" style="fill: rgb(174, 199, 232);"/><title>1sandpaper → R.size
1.00</title><text class="label" dy="0.35em" x="271.3333333333333" y="282.1168831168831"/></g><g class="link" style="opacity: 0.8;"><path d="M267.3333333333333,285.6623376623376 A170.19490400157076 170.19490400157076 0.30532443281185184 0 1 318.49436715688734,293.5339409144194 L483.6371786844405,345.5836277262775 A163.1039949106617 163.1039949106617 0.30532443281185184 0 0 532.6666666666666,353.1272727272726 L532.6666666666666,360.21818181818173 A170.19490400157076 170.19490400157076 0.30532443281185184 0 1 481.5056328431126,352.34657856609994 L316.3628213155594,300.29689175424187 A163.1039949106617 163.1039949106617 0.30532443281185184 0 0 267.3333333333333,292.75324675324674 Z" style="fill: rgb(174, 199, 232);"/><title>1sandpaper → R.spatiality
1.00</title><text class="label" dy="0.35em" x="271.3333333333333" y="289.2077922077922"/></g><g class="link" style="opacity: 0.8;"><path d="M267.3333333333333,292.7532467532467 A98.98007145632147 98.98007145632147 0.6193732533500615 0 1 324.7937344512304,311.1395414717278 L471.6879671868778,415.8697312772268 A105.04061778891969 105.04061778891969 0.6193732533500615 0 0 532.6666666666666,435.38181818181806 L532.6666666666666,442.4727272727272 A112.13152687982878 112.13152687982878 0.6193732533500615 0 1 467.571517535354,421.6434505293212 L320.6772847997066,316.91326072382225 A91.88916236541237 91.88916236541237 0.6193732533500615 0 0 267.3333333333333,299.8441558441558 Z" style="fill: rgb(174, 199, 232);"/><title>1sandpaper → R.texture
1.00</title><text class="label" dy="0.35em" x="271.3333333333333" y="296.29870129870125"/></g><g class="link" style="opacity: 0.8;"><path d="M267.3333333333333,271.4805194805195 A136.327400168427 136.327400168427 0.37134852048549627 0 0 316.80277948880956,262.1882874103513 L480.6241255571846,198.39373839083294 A143.41830925933607 143.41830925933607 0.37134852048549627 0 1 532.6666666666666,188.61818181818182 L532.6666666666666,195.7090909090909 A136.327400168427 136.327400168427 0.37134852048549627 0 0 483.1972205111904,205.0013229792591 L319.37587444281536,268.7958719987775 A143.41830925933607 143.41830925933607 0.37134852048549627 0 1 267.3333333333333,278.5714285714286 Z" style="fill: rgb(174, 199, 232);"/><title>1sandpaper → R.permeability
1.00</title><text class="label" dy="0.35em" x="271.3333333333333" y="275.02597402597405"/></g><g class="link" style="opacity: 0.8;"><path d="M267.3333333333333,523.7142857142858 A308.234856646621 308.234856646621 0.15818431237133868 0 0 315.88816740698326,519.8659513383516 L482.994833957346,493.2095921591561 A315.3257657375301 315.3257657375301 0.15818431237133868 0 1 532.6666666666666,489.27272727272725 L532.6666666666666,496.3636363636364 A308.234856646621 308.234856646621 0.15818431237133868 0 0 484.1118325930167,500.2119707395705 L317.00516604265397,526.868329918766 A315.3257657375301 315.3257657375301 0.15818431237133868 0 1 267.3333333333333,530.8051948051948 Z" style="fill: rgb(174, 199, 232);"/><title>2newpaper → cost
1.00</title><text class="label" dy="0.35em" x="271.3333333333333" y="527.2597402597403"/></g><g class="link" style="opacity: 0.8;"><path d="M267.3333333333333,530.8051948051949 A111.16589761802193 111.16589761802193 0.5112919156046076 0 1 321.727290767615,545.0218573160842 L481.7423219061078,634.7992628105611 A104.07498852711284 104.07498852711284 0.5112919156046076 0 0 532.6666666666666,648.109090909091 L532.6666666666666,655.2 A111.16589761802193 111.16589761802193 0.5112919156046076 0 1 478.27270923238495,640.9833374891108 L318.25767809389214,551.2059319946338 A104.07498852711284 104.07498852711284 0.5112919156046076 0 0 267.3333333333333,537.8961038961039 Z" style="fill: rgb(174, 199, 232);"/><title>2newpaper → portable
1.00</title><text class="label" dy="0.35em" x="271.3333333333333" y="534.3506493506494"/></g><g class="link" style="opacity: 0.8;"><path d="M267.3333333333333,549.0389610389611 A100.45634227896997 100.45634227896997 0.5924446907855387 0 1 323.42722577759,566.158925099762 L480.532272277524,671.9066641933227 A93.36543318806088 93.36543318806088 0.5924446907855387 0 0 532.6666666666666,687.818181818182 L532.6666666666666,694.909090909091 A100.45634227896997 100.45634227896997 0.5924446907855387 0 1 476.5727742224099,677.7891268482902 L319.46772772247596,572.0413877547294 A93.36543318806088 93.36543318806088 0.5924446907855387 0 0 267.3333333333333,556.1298701298701 Z" style="fill: rgb(174, 199, 232);"/><title>2paperstick_tape → sticky
1.00</title><text class="label" dy="0.35em" x="271.3333333333333" y="552.5844155844156"/></g><g class="link" style="opacity: 0.8;"><path d="M267.3333333333333,310.98701298701303 A79.54533164840855 79.54533164840855 0.806344772151267 0 0 324.7461363738378,286.4982870647801 L461.633231500896,143.75298470444662 A98.41669208174063 98.41669208174063 0.806344772151267 0 1 532.6666666666666,113.45454545454547 L532.6666666666666,120.54545454545456 A91.32578299083154 91.32578299083154 0.806344772151267 0 0 466.75118070769435,148.66089542614574 L329.8640855806362,291.40619778647914 A86.63624073931764 86.63624073931764 0.806344772151267 0 1 267.3333333333333,318.07792207792215 Z" style="fill: rgb(174, 199, 232);"/><title>4brochure_leaflet → R.orientation
1.00</title><text class="label" dy="0.35em" x="271.3333333333333" y="314.5324675324676"/></g><g class="link" style="opacity: 0.8;"><path d="M267.3333333333333,325.16883116883116 A227.24516657400738 227.24516657400738 0.21580548125093535 0 0 315.99431690933875,319.89770453793085 L482.487276270337,283.3992420913196 A234.33607566491645 234.33607566491645 0.21580548125093535 0 1 532.6666666666666,277.9636363636363 L532.6666666666666,285.0545454545454 A227.24516657400738 227.24516657400738 0.21580548125093535 0 0 484.00568309066114,290.3256720854457 L317.51272372966287,326.824134532057 A234.33607566491645 234.33607566491645 0.21580548125093535 0 1 267.3333333333333,332.2597402597403 Z" style="fill: rgb(174, 199, 232);"/><title>4brochure_leaflet → R.size
1.00</title><text class="label" dy="0.35em" x="271.3333333333333" y="328.7142857142857"/></g><g class="link" style="opacity: 0.8;"><path d="M267.3333333333333,332.2597402597402 A385.45221470960735 385.45221470960735 0.12864111198450923 0 1 316.7816881034281,335.44467931647137 L484.1279805273097,357.0918339757426 A378.3613056186982 378.3613056186982 0.12864111198450923 0 0 532.6666666666666,360.2181818181817 L532.6666666666666,367.3090909090908 A385.45221470960735 385.45221470960735 0.12864111198450923 0 1 483.21831189657183,364.12415185235966 L315.8720194726902,342.47699719308844 A378.3613056186982 378.3613056186982 0.12864111198450923 0 0 267.3333333333333,339.35064935064935 Z" style="fill: rgb(174, 199, 232);"/><title>4brochure_leaflet → R.spatiality
1.00</title><text class="label" dy="0.35em" x="271.3333333333333" y="335.8051948051948"/></g><g class="link" style="opacity: 0.8;"><path d="M267.3333333333333,339.3506493506493 A121.4192537826723 121.4192537826723 0.45506254702919846 0 1 320.69934120264725,351.7070570617409 L482.4172444998424,430.837936282542 A114.3283446917632 114.3283446917632 0.45506254702919846 0 0 532.6666666666666,442.4727272727271 L532.6666666666666,449.56363636363625 A121.4192537826723 121.4192537826723 0.45506254702919846 0 1 479.3006587973527,437.20722865254464 L317.58275550015753,358.07634943174355 A114.3283446917632 114.3283446917632 0.45506254702919846 0 0 267.3333333333333,346.4415584415584 Z" style="fill: rgb(174, 199, 232);"/><title>4brochure_leaflet → R.texture
1.00</title><text class="label" dy="0.35em" x="271.3333333333333" y="342.89610389610385"/></g><g class="link" style="opacity: 0.8;"><path d="M267.3333333333333,318.0779220779221 A101.1085343060177 101.1085343060177 0.5308730664634473 0 0 318.5232128523771,304.16188713014594 L477.8867560534571,210.60108045256857 A108.1994433969268 108.1994433969268 0.5308730664634473 0 1 532.6666666666666,195.70909090909092 L532.6666666666666,202.79999999999998 A101.1085343060177 101.1085343060177 0.5308730664634473 0 0 481.4767871476228,216.71603494777622 L322.11324394654287,310.27684162535354 A108.1994433969268 108.1994433969268 0.5308730664634473 0 1 267.3333333333333,325.1688311688312 Z" style="fill: rgb(174, 199, 232);"/><title>4brochure_leaflet → R.permeability
1.00</title><text class="label" dy="0.35em" x="271.3333333333333" y="321.62337662337666"/></g><g class="link" style="opacity: 0.8;"><path d="M267.3333333333333,357.58441558441564 A76.56115299705041 76.56115299705041 0.9139013069534797 0 0 327.96150831349007,327.776172088414 L460.3464973037356,156.10214446310238 A91.32578299083154 91.32578299083154 0.9139013069534797 0 1 532.6666666666666,120.54545454545456 L532.6666666666666,127.63636363636365 A84.23487389992245 84.23487389992245 0.9139013069534797 0 0 465.961732449797,160.43228603006924 L333.5767434595515,332.10631365538086 A83.65206208795951 83.65206208795951 0.9139013069534797 0 1 267.3333333333333,364.67532467532476 Z" style="fill: rgb(174, 199, 232);"/><title>7tissue → R.orientation
1.00</title><text class="label" dy="0.35em" x="271.3333333333333" y="361.1298701298702"/></g><g class="link" style="opacity: 0.8;"><path d="M267.3333333333333,371.76623376623377 A131.24726403399288 131.24726403399288 0.3875438440086296 0 0 316.93371526699906,362.0329460001712 L480.38651992605674,295.31369453446314 A138.33817312490194 138.33817312490194 0.3875438440086296 0 1 532.6666666666666,285.05454545454535 L532.6666666666666,292.14545454545447 A131.24726403399288 131.24726403399288 0.3875438440086296 0 0 483.0662847330009,301.87874231151704 L319.6134800739432,368.5979937772251 A138.33817312490194 138.33817312490194 0.3875438440086296 0 1 267.3333333333333,378.8571428571429 Z" style="fill: rgb(174, 199, 232);"/><title>7tissue → R.size
1.00</title><text class="label" dy="0.35em" x="271.3333333333333" y="375.31168831168833"/></g><g class="link" style="opacity: 0.8;"><path d="M267.3333333333333,378.85714285714283 A912.6497911834639 912.6497911834639 0.05328972810996513 0 0 315.9451769940004,377.56158028247364 L483.67712920990243,368.61471946583475 A919.7407002743729 919.7407002743729 0.05328972810996513 0 1 532.6666666666666,367.30909090909074 L532.6666666666666,374.39999999999986 A912.6497911834639 912.6497911834639 0.05328972810996513 0 0 484.05482300599954,375.69556257466905 L316.3228707900975,384.64242339130794 A919.7407002743729 919.7407002743729 0.05328972810996513 0 1 267.3333333333333,385.94805194805195 Z" style="fill: rgb(174, 199, 232);"/><title>7tissue → R.spatiality
1.00</title><text class="label" dy="0.35em" x="271.3333333333333" y="382.4025974025974"/></g><g class="link" style="opacity: 0.8;"><path d="M267.3333333333333,385.9480519480519 A179.0890443173248 179.0890443173248 0.28852954454840907 0 1 318.2918424726695,393.35099857313804 L483.7258250909309,442.4538043828514 A171.99813522641574 171.99813522641574 0.28852954454840907 0 0 532.6666666666666,449.5636363636362 L532.6666666666666,456.6545454545453 A179.0890443173248 179.0890443173248 0.28852954454840907 0 1 481.7081575273304,449.25159882945917 L316.27417490906896,400.1487930197458 A171.99813522641574 171.99813522641574 0.28852954454840907 0 0 267.3333333333333,393.038961038961 Z" style="fill: rgb(174, 199, 232);"/><title>7tissue → R.texture
1.00</title><text class="label" dy="0.35em" x="271.3333333333333" y="389.49350649350646"/></g><g class="link" style="opacity: 0.8;"><path d="M267.3333333333333,364.6753246753247 A85.97288190602332 85.97288190602332 0.6741480959134839 0 0 321.00035757563603,345.8678128062715 L474.5732700422241,223.15872608838612 A93.06379099693241 93.06379099693241 0.6741480959134839 0 1 532.6666666666666,202.8 L532.6666666666666,209.89090909090908 A85.97288190602332 85.97288190602332 0.6741480959134839 0 0 478.9996424243639,228.69842095996233 L325.4267299577758,351.4075076778477 A93.06379099693241 93.06379099693241 0.6741480959134839 0 1 267.3333333333333,371.7662337662338 Z" style="fill: rgb(174, 199, 232);"/><title>7tissue → R.permeability
1.00</title><text class="label" dy="0.35em" x="271.3333333333333" y="368.22077922077926"/></g><g class="link" style="opacity: 0.8;"><path d="M267.3333333333333,440.6493506493507 A77.14396480901335 77.14396480901335 1.0755066431687155 0 0 335.2069899743428,400.17087425427565 L458.55420793529913,171.83553544768532 A84.23487389992245 84.23487389992245 1.0755066431687155 0 1 532.6666666666666,127.63636363636364 L532.6666666666666,134.72727272727272 A77.14396480901335 77.14396480901335 1.0755066431687155 0 0 464.79301002565717,175.20574912234778 L341.4457920647008,403.54108792893817 A84.23487389992245 84.23487389992245 1.0755066431687155 0 1 267.3333333333333,447.74025974025983 Z" style="fill: rgb(174, 199, 232);"/><title>8notebook → R.orientation
1.00</title><text class="label" dy="0.35em" x="271.3333333333333" y="444.19480519480527"/></g><g class="link" style="opacity: 0.8;"><path d="M267.3333333333333,454.83116883116884 A91.32578299083154 91.32578299083154 0.6832637031493488 0 0 324.98980585662105,434.33002713882763 L474.04135913183006,312.9910887635956 A92.86038287435544 92.86038287435544 0.6832637031493488 0 1 532.6666666666666,292.1454545454544 L532.6666666666666,299.23636363636354 A85.76947378344634 85.76947378344634 0.6832637031493488 0 0 478.5180445954102,318.4902049649236 L329.46649132020116,439.8291433401556 A98.41669208174063 98.41669208174063 0.6832637031493488 0 1 267.3333333333333,461.92207792207796 Z" style="fill: rgb(174, 199, 232);"/><title>8notebook → R.size
1.00</title><text class="label" dy="0.35em" x="271.3333333333333" y="458.3766233766234"/></g><g class="link" style="opacity: 0.8;"><path d="M267.3333333333333,461.9220779220779 A130.24117464839665 130.24117464839665 0.39093666416481354 0 0 316.9623290979337,452.09571279971686 L480.3356475351093,384.7613561646702 A137.33208373930572 137.33208373930572 0.39093666416481354 0 1 532.6666666666666,374.3999999999998 L532.6666666666666,381.49090909090893 A130.24117464839665 130.24117464839665 0.39093666416481354 0 0 483.0376709020662,391.31727421326997 L319.66435246489067,458.65163084831664 A137.33208373930572 137.33208373930572 0.39093666416481354 0 1 267.3333333333333,469.012987012987 Z" style="fill: rgb(174, 199, 232);"/><title>8notebook → R.spatiality
1.00</title><text class="label" dy="0.35em" x="271.3333333333333" y="465.46753246753246"/></g><g class="link" style="opacity: 0.8;"><path d="M267.3333333333333,469.01298701298697 A852.8065602521232 852.8065602521232 0.05702436395888588 0 0 315.93773322778844,467.62679386512684 L483.65813130101174,458.05226450998174 A859.8974693430322 859.8974693430322 0.05702436395888588 0 1 532.6666666666666,456.65454545454526 L532.6666666666666,463.7454545454544 A852.8065602521232 852.8065602521232 0.05702436395888588 0 0 484.0622667722115,465.1316476933145 L316.3418686989882,474.7061770484596 A859.8974693430322 859.8974693430322 0.05702436395888588 0 1 267.3333333333333,476.1038961038961 Z" style="fill: rgb(174, 199, 232);"/><title>8notebook → R.texture
1.00</title><text class="label" dy="0.35em" x="271.3333333333333" y="472.55844155844153"/></g><g class="link" style="opacity: 0.8;"><path d="M267.3333333333333,447.7402597402598 A84.23487389992245 84.23487389992245 0.9161248283945058 0 0 334.1524781714175,414.7958904590575 L466.33381832978836,242.59551577780238 A83.62182917215284 83.62182917215284 0.9161248283945058 0 1 532.6666666666666,209.8909090909091 L532.6666666666666,216.98181818181817 A76.53092008124375 76.53092008124375 0.9161248283945058 0 0 471.95866774954374,246.91316105510518 L339.7773275911729,419.11353573636035 A91.32578299083154 91.32578299083154 0.9161248283945058 0 1 267.3333333333333,454.8311688311689 Z" style="fill: rgb(174, 199, 232);"/><title>8notebook → R.permeability
1.00</title><text class="label" dy="0.35em" x="271.3333333333333" y="451.28571428571433"/></g><g class="link" style="opacity: 0.8;"><path d="M533.6666666666666,496.3636363636363 A92.75988986858556 92.75988986858556 0.6782865006393797 0 1 591.8697622316934,516.8961295251518 L745.2461643472672,640.4916320178904 A85.66898077767647 85.66898077767647 0.6782865006393797 0 0 799,659.4545454545454 L799,666.5454545454544 A92.75988986858556 92.75988986858556 0.6782865006393797 0 1 740.7969044349733,646.012961383939 L587.4205023193995,522.4174588912003 A85.66898077767647 85.66898077767647 0.6782865006393797 0 0 533.6666666666666,503.45454545454544 Z" style="fill: rgb(174, 199, 232);"/><title>cost → user
1.00</title><text class="label" dy="0.35em" x="537.6666666666666" y="499.9090909090909"/></g><g class="link" style="opacity: 0.8;"><path d="M533.6666666666666,489.27272727272725 A83.82249551215068 83.82249551215068 1.3874828311134333 0 0 616.0847229073862,420.73011263007635 L657.8644361697953,195.37477204913168 A143.54057478872292 143.54057478872292 1.3874828311134333 0 1 799,78 L799,85.0909090909091 A136.44966569781386 136.44966569781386 1.3874828311134333 0 0 664.8365376406667,196.66736356055762 L623.0568243782576,422.0227041415023 A90.91340460305977 90.91340460305977 1.3874828311134333 0 1 533.6666666666666,496.3636363636364 Z" style="fill: rgb(174, 199, 232);"/><title>cost → AR
1.00</title><text class="label" dy="0.35em" x="537.6666666666666" y="492.8181818181818"/></g><g class="link" style="opacity: 0.8;"><path d="M533.6666666666666,655.2000000000002 A332.192176615656 332.192176615656 0.14989170464104218 0 1 583.2732739594343,658.924785970027 L750.4522856233905,684.1729043993967 A325.1012675247469 325.1012675247469 0.14989170464104218 0 0 799,687.8181818181819 L799,694.9090909090909 A332.192176615656 332.192176615656 0.14989170464104218 0 1 749.3933927072324,691.1843049390641 L582.2143810432761,665.9361865096944 A325.1012675247469 325.1012675247469 0.14989170464104218 0 0 533.6666666666666,662.2909090909092 Z" style="fill: rgb(174, 199, 232);"/><title>portable → user
1.00</title><text class="label" dy="0.35em" x="537.6666666666666" y="658.7454545454547"/></g><g class="link" style="opacity: 0.8;"><path d="M533.6666666666666,648.109090909091 A97.20940520793926 97.20940520793926 1.4187478697711557 0 0 629.7545558877614,565.6233403397237 L685.1518710402447,204.09549876885097 A115.1769384250866 115.1769384250866 1.4187478697711557 0 1 799,106.36363636363637 L799,113.45454545454547 A108.08602933417751 108.08602933417751 1.4187478697711557 0 0 692.1609715048207,205.16951106534356 L636.7636563523374,566.6973526362162 A104.30031429884835 104.30031429884835 1.4187478697711557 0 1 533.6666666666666,655.2 Z" style="fill: rgb(174, 199, 232);"/><title>portable → AR
1.00</title><text class="label" dy="0.35em" x="537.6666666666666" y="651.6545454545455"/></g><g class="link" style="opacity: 0.8;"><path d="M533.6666666666666,694.9090909090911 A0 0 0 0 0 533.6666666666666,694.9090909090911 L799,694.909090909091 A0 0 0 0 1 799,694.909090909091 L799,702 A0 0 0 0 0 799,702 L533.6666666666666,702.0000000000001 A0 0 0 0 1 533.6666666666666,702.0000000000001 Z" style="fill: rgb(174, 199, 232);"/><title>sticky → user
1.00</title><text class="label" dy="0.35em" x="537.6666666666666" y="698.4545454545456"/></g><g class="link" style="opacity: 0.8;"><path d="M533.6666666666666,687.818181818182 A100.99512024326842 100.99512024326842 1.4240781968383813 0 0 633.5767143985247,601.5877720417699 L692.0752265662612,205.7392279039695 A108.08602933417751 108.08602933417751 1.4240781968383813 0 1 799,113.45454545454547 L799,120.54545454545456 A100.99512024326842 100.99512024326842 1.4240781968383813 0 0 699.0899522681419,206.7758643218666 L640.5914401004054,602.624408459667 A108.08602933417751 108.08602933417751 1.4240781968383813 0 1 533.6666666666666,694.909090909091 Z" style="fill: rgb(174, 199, 232);"/><title>sticky → AR
1.00</title><text class="label" dy="0.35em" x="537.6666666666666" y="691.3636363636365"/></g><g class="link" style="opacity: 0.8;"><path d="M533.6666666666666,615.4909090909092 A175.20790648964586 175.20790648964586 0.2956142871779466 0 1 584.7095561950924,623.0908386669445 L750.0228876196206,673.4349229334555 A168.1169973987368 168.1169973987368 0.2956142871779466 0 0 799,680.7272727272727 L799,687.8181818181818 A175.20790648964586 175.20790648964586 0.2956142871779466 0 1 747.9571104715742,680.2182522421465 L582.643779047046,629.8741679756355 A168.1169973987368 168.1169973987368 0.2956142871779466 0 0 533.6666666666666,622.5818181818182 Z" style="fill: rgb(174, 199, 232);"/><title>organize_sticky → user
1.00</title><text class="label" dy="0.35em" x="537.6666666666666" y="619.0363636363637"/></g><g class="link" style="opacity: 0.8;"><path d="M533.6666666666666,608.4000000000001 A93.56553575177533 93.56553575177533 1.412654278127471 0 0 626.064652808757,529.5695121749477 L678.2578614589739,202.285380249731 A122.2678475159957 122.2678475159957 1.412654278127471 0 1 799,99.27272727272728 L799,106.36363636363637 A115.1769384250866 115.1769384250866 1.412654278127471 0 0 685.260287241634,203.40208293794913 L633.0670785914172,530.6862148631658 A100.65644484268442 100.65644484268442 1.412654278127471 0 1 533.6666666666666,615.4909090909091 Z" style="fill: rgb(174, 199, 232);"/><title>organize_sticky → AR
1.00</title><text class="label" dy="0.35em" x="537.6666666666666" y="611.9454545454546"/></g><g class="link" style="opacity: 0.8;"><path d="M533.6666666666666,575.7818181818183 A126.14163462946082 126.14163462946082 0.43366748137329436 0 1 586.6715841683,587.4586516380039 L748.9746938890014,662.6159301447949 A119.05072553855173 119.05072553855173 0.43366748137329436 0 0 799,673.6363636363636 L799,680.7272727272726 A126.14163462946082 126.14163462946082 0.43366748137329436 0 1 745.9950824983666,669.050439271087 L583.6919727776652,593.893160764296 A119.05072553855173 119.05072553855173 0.43366748137329436 0 0 533.6666666666666,582.8727272727273 Z" style="fill: rgb(174, 199, 232);"/><title>information_strength → user
1.00</title><text class="label" dy="0.35em" x="537.6666666666666" y="579.3272727272728"/></g><g class="link" style="opacity: 0.8;"><path d="M533.6666666666666,568.6909090909091 A90.09264087764089 90.09264087764089 1.4056080584633406 0 0 622.5329137541456,493.41292544503347 L671.4021505466686,200.26907447093998 A129.3587566069048 129.3587566069048 1.4056080584633406 0 1 799,92.18181818181819 L799,99.27272727272728 A122.2678475159957 122.2678475159957 1.4056080584633406 0 0 678.3965340302587,201.435089659529 L629.5272972377358,494.57894063362255 A97.18354996854998 97.18354996854998 1.4056080584633406 0 1 533.6666666666666,575.7818181818182 Z" style="fill: rgb(174, 199, 232);"/><title>information_strength → AR
1.00</title><text class="label" dy="0.35em" x="537.6666666666666" y="572.2363636363636"/></g><g class="link" style="opacity: 0.8;"><path d="M533.6666666666666,536.0727272727273 A104.05486233573195 104.05486233573195 0.561639587707488 0 1 589.083646722855,552.0573182499575 L747.3594582461687,651.6501474222474 A96.96395324482286 96.96395324482286 0.561639587707488 0 0 799,666.5454545454545 L799,673.6363636363635 A104.05486233573195 104.05486233573195 0.561639587707488 0 1 743.5830199438117,657.6517726591334 L585.3072084204979,558.0589434868434 A96.96395324482286 96.96395324482286 0.561639587707488 0 0 533.6666666666666,543.1636363636363 Z" style="fill: rgb(174, 199, 232);"/><title>digital??? → user
1.00</title><text class="label" dy="0.35em" x="537.6666666666666" y="539.6181818181818"/></g><g class="link" style="opacity: 0.8;"><path d="M533.6666666666666,528.9818181818182 A86.82841146783639 86.82841146783639 1.3973452904891335 0 0 619.1922216981665,457.13848177491434 L664.5977554421687,197.9917334825761 A136.44966569781386 136.44966569781386 1.3973452904891335 0 1 799,85.0909090909091 L799,92.18181818181819 A129.3587566069048 129.3587566069048 1.3973452904891335 0 0 671.5822657588473,199.21550117774908 L626.176732014845,458.36224947008725 A93.91932055874548 93.91932055874548 1.3973452904891335 0 1 533.6666666666666,536.0727272727272 Z" style="fill: rgb(174, 199, 232);"/><title>digital??? → AR
1.00</title><text class="label" dy="0.35em" x="537.6666666666666" y="532.5272727272727"/></g></g><g class="nodes"><g class="node" transform="translate(532.6666666666666,489.27272727272725)"><title>cost</title><line x1="0" x2="0" y1="-5" y2="14.181818181818187" style="display: inline; stroke: rgb(0, 0, 0);"/><rect class="node-body" width="1" height="14.181818181818187" style="fill: none;"/><text class="node-value" dy=".35em" text-anchor="middle" transform="translate(0.5,7.0909090909090935) rotate(-90)" style="display: none;"/><text class="node-title" dy=".35em" text-anchor="start" transform="translate(-4,-10)" style="display: inline;">cost</text><rect class="node-click-target" x="-5" y="-5" width="10" height="19.181818181818187" style="fill: none; visibility: hidden; pointer-events: all;"/></g><g class="node" transform="translate(266.3333333333333,523.7142857142858)"><title>2newpaper</title><line x1="0" x2="0" y1="0" y2="14.18181818181813" style="display: inline; stroke: rgb(0, 0, 0);"/><rect class="node-body" width="1" height="14.18181818181813" style="fill: none;"/><text class="node-value" dy=".35em" text-anchor="middle" transform="translate(0.5,7.090909090909065) rotate(-90)" style="display: none;"/><text class="node-title" dy=".35em" text-anchor="start" transform="translate(5,7.090909090909065)" style="display: inline;">2newpaper</text><rect class="node-click-target" x="-5" y="-5" width="10" height="19.18181818181813" style="fill: none; visibility: hidden; pointer-events: all;"/></g><g class="node" transform="translate(266.3333333333333,264.3896103896104)"><title>1sandpaper</title><line x1="0" x2="0" y1="0" y2="35.45454545454544" style="display: inline; stroke: rgb(0, 0, 0);"/><rect class="node-body" width="1" height="35.45454545454544" style="fill: none;"/><text class="node-value" dy=".35em" text-anchor="middle" transform="translate(0.5,17.72727272727272) rotate(-90)" style="display: none;"/><text class="node-title" dy=".35em" text-anchor="start" transform="translate(5,17.72727272727272)" style="display: inline;">1sandpaper</text><rect class="node-click-target" x="-5" y="-5" width="10" height="40.45454545454544" style="fill: none; visibility: hidden; pointer-events: all;"/></g><g class="node" transform="translate(266.3333333333333,621.9740259740261)"><title>2receipt</title><line x1="0" x2="0" y1="0" y2="7.090909090909122" style="display: inline; stroke: rgb(0, 0, 0);"/><rect class="node-body" width="1" height="7.090909090909122" style="fill: none;"/><text class="node-value" dy=".35em" text-anchor="middle" transform="translate(0.5,3.545454545454561) rotate(-90)" style="display: none;"/><text class="node-title" dy=".35em" text-anchor="start" transform="translate(5,3.545454545454561)" style="display: inline;">2receipt</text><rect class="node-click-target" x="-5" y="-5" width="10" height="12.090909090909122" style="fill: none; visibility: hidden; pointer-events: all;"/></g><g class="node" transform="translate(266.3333333333333,487.2467532467533)"><title>3scratchpaperdraft</title><line x1="0" x2="0" y1="0" y2="7.090909090909065" style="display: inline; stroke: rgb(0, 0, 0);"/><rect class="node-body" width="1" height="7.090909090909065" style="fill: none;"/><text class="node-value" dy=".35em" text-anchor="middle" transform="translate(0.5,3.5454545454545325) rotate(-90)" style="display: none;"/><text class="node-title" dy=".35em" text-anchor="start" transform="translate(5,3.5454545454545325)" style="display: inline;">3scratchpaperdraft</text><rect class="node-click-target" x="-5" y="-5" width="10" height="12.090909090909065" style="fill: none; visibility: hidden; pointer-events: all;"/></g><g class="node" transform="translate(266.3333333333333,440.6493506493507)"><title>8notebook</title><line x1="0" x2="0" y1="0" y2="35.45454545454544" style="display: inline; stroke: rgb(0, 0, 0);"/><rect class="node-body" width="1" height="35.45454545454544" style="fill: none;"/><text class="node-value" dy=".35em" text-anchor="middle" transform="translate(0.5,17.72727272727272) rotate(-90)" style="display: none;"/><text class="node-title" dy=".35em" text-anchor="start" transform="translate(5,17.72727272727272)" style="display: inline;">8notebook</text><rect class="node-click-target" x="-5" y="-5" width="10" height="40.45454545454544" style="fill: none; visibility: hidden; pointer-events: all;"/></g><g class="node" transform="translate(532.6666666666666,407.0181818181818)"><title>R.texture</title><line x1="0" x2="0" y1="0" y2="56.72727272727275" style="display: inline; stroke: rgb(0, 0, 0);"/><rect class="node-body" width="1" height="56.72727272727275" style="fill: none;"/><text class="node-value" dy=".35em" text-anchor="middle" transform="translate(0.5,28.363636363636374) rotate(-90)" style="display: none;"/><text class="node-title" dy=".35em" text-anchor="start" transform="translate(5,28.363636363636374)" style="display: inline;">R.texture</text><rect class="node-click-target" x="-5" y="-5" width="10" height="61.72727272727275" style="fill: none; visibility: hidden; pointer-events: all;"/></g><g class="node" transform="translate(266.3333333333333,171.1948051948052)"><title>1money</title><line x1="0" x2="0" y1="0" y2="35.45454545454544" style="display: inline; stroke: rgb(0, 0, 0);"/><rect class="node-body" width="1" height="35.45454545454544" style="fill: none;"/><text class="node-value" dy=".35em" text-anchor="middle" transform="translate(0.5,17.72727272727272) rotate(-90)" style="display: none;"/><text class="node-title" dy=".35em" text-anchor="start" transform="translate(5,17.72727272727272)" style="display: inline;">1money</text><rect class="node-click-target" x="-5" y="-5" width="10" height="40.45454545454544" style="fill: none; visibility: hidden; pointer-events: all;"/></g><g class="node" transform="translate(266.3333333333333,676.6753246753248)"><title>7card</title><line x1="0" x2="0" y1="0" y2="7.090909090909122" style="display: inline; stroke: rgb(0, 0, 0);"/><rect class="node-body" width="1" height="7.090909090909122" style="fill: none;"/><text class="node-value" dy=".35em" text-anchor="middle" transform="translate(0.5,3.545454545454561) rotate(-90)" style="display: none;"/><text class="node-title" dy=".35em" text-anchor="start" transform="translate(5,3.545454545454561)" style="display: inline;">7card</text><rect class="node-click-target" x="-5" y="-5" width="10" height="12.090909090909122" style="fill: none; visibility: hidden; pointer-events: all;"/></g><g class="node" transform="translate(0,78)"><title>Preprinted</title><line x1="0" x2="0" y1="0" y2="56.72727272727272" style="display: inline; stroke: rgb(0, 0, 0);"/><rect class="node-body" width="1" height="56.72727272727272" style="fill: none;"/><text class="node-value" dy=".35em" text-anchor="middle" transform="translate(0.5,28.36363636363636) rotate(-90)" style="display: none;"/><text class="node-title" dy=".35em" text-anchor="end" transform="translate(-4,28.36363636363636)" style="display: inline;">Preprinted</text><rect class="node-click-target" x="-5" y="-5" width="10" height="61.72727272727272" style="fill: none; visibility: hidden; pointer-events: all;"/></g><g class="node" transform="translate(266.3333333333333,310.98701298701303)"><title>4brochure_leaflet</title><line x1="0" x2="0" y1="0" y2="35.45454545454544" style="display: inline; stroke: rgb(0, 0, 0);"/><rect class="node-body" width="1" height="35.45454545454544" style="fill: none;"/><text class="node-value" dy=".35em" text-anchor="middle" transform="translate(0.5,17.72727272727272) rotate(-90)" style="display: none;"/><text class="node-title" dy=".35em" text-anchor="start" transform="translate(5,17.72727272727272)" style="display: inline;">4brochure_leaflet</text><rect class="node-click-target" x="-5" y="-5" width="10" height="40.45454545454544" style="fill: none; visibility: hidden; pointer-events: all;"/></g><g class="node" transform="translate(0,368.72727272727275)"><title>User_generated</title><line x1="0" x2="0" y1="0" y2="35.45454545454544" style="display: inline; stroke: rgb(0, 0, 0);"/><rect class="node-body" width="1" height="35.45454545454544" style="fill: none;"/><text class="node-value" dy=".35em" text-anchor="middle" transform="translate(0.5,17.72727272727272) rotate(-90)" style="display: none;"/><text class="node-title" dy=".35em" text-anchor="end" transform="translate(-4,17.72727272727272)" style="display: inline;">User_generated</text><rect class="node-click-target" x="-5" y="-5" width="10" height="40.45454545454544" style="fill: none; visibility: hidden; pointer-events: all;"/></g><g class="node" transform="translate(266.3333333333333,549.0389610389611)"><title>2paperstick_tape</title><line x1="0" x2="0" y1="0" y2="7.090909090909122" style="display: inline; stroke: rgb(0, 0, 0);"/><rect class="node-body" width="1" height="7.090909090909122" style="fill: none;"/><text class="node-value" dy=".35em" text-anchor="middle" transform="translate(0.5,3.545454545454561) rotate(-90)" style="display: none;"/><text class="node-title" dy=".35em" text-anchor="start" transform="translate(5,3.545454545454561)" style="display: inline;">2paperstick_tape</text><rect class="node-click-target" x="-5" y="-5" width="10" height="12.090909090909122" style="fill: none; visibility: hidden; pointer-events: all;"/></g><g class="node" transform="translate(532.6666666666666,160.25454545454545)"><title>R.permeability</title><line x1="0" x2="0" y1="0" y2="56.72727272727272" style="display: inline; stroke: rgb(0, 0, 0);"/><rect class="node-body" width="1" height="56.72727272727272" style="fill: none;"/><text class="node-value" dy=".35em" text-anchor="middle" transform="translate(0.5,28.36363636363636) rotate(-90)" style="display: none;"/><text class="node-title" dy=".35em" text-anchor="start" transform="translate(5,28.36363636363636)" style="display: inline;">R.permeability</text><rect class="node-click-target" x="-5" y="-5" width="10" height="61.72727272727272" style="fill: none; visibility: hidden; pointer-events: all;"/></g><g class="node" transform="translate(799,78)"><title>AR</title><line x1="0" x2="0" y1="0" y2="42.54545454545455" style="display: inline; stroke: rgb(0, 0, 0);"/><rect class="node-body" width="1" height="42.54545454545455" style="fill: none;"/><text class="node-value" dy=".35em" text-anchor="middle" transform="translate(0.5,21.272727272727273) rotate(-90)" style="display: none;"/><text class="node-title" dy=".35em" text-anchor="start" transform="translate(5,21.272727272727273)" style="display: inline;">AR</text><rect class="node-click-target" x="-5" y="-5" width="10" height="47.54545454545455" style="fill: none; visibility: hidden; pointer-events: all;"/></g><g class="node" transform="translate(266.3333333333333,357.58441558441564)"><title>7tissue</title><line x1="0" x2="0" y1="0" y2="35.45454545454544" style="display: inline; stroke: rgb(0, 0, 0);"/><rect class="node-body" width="1" height="35.45454545454544" style="fill: none;"/><text class="node-value" dy=".35em" text-anchor="middle" transform="translate(0.5,17.72727272727272) rotate(-90)" style="display: none;"/><text class="node-title" dy=".35em" text-anchor="start" transform="translate(5,17.72727272727272)" style="display: inline;">7tissue</text><rect class="node-click-target" x="-5" y="-5" width="10" height="40.45454545454544" style="fill: none; visibility: hidden; pointer-events: all;"/></g><g class="node" transform="translate(532.6666666666666,648.109090909091)"><title>portable</title><line x1="0" x2="0" y1="-5" y2="14.18181818181813" style="display: inline; stroke: rgb(0, 0, 0);"/><rect class="node-body" width="1" height="14.18181818181813" style="fill: none;"/><text class="node-value" dy=".35em" text-anchor="middle" transform="translate(0.5,7.090909090909065) rotate(-90)" style="display: none;"/><text class="node-title" dy=".35em" text-anchor="start" transform="translate(-4,-10)" style="display: inline;">portable</text><rect class="node-click-target" x="-5" y="-5" width="10" height="19.18181818181813" style="fill: none; visibility: hidden; pointer-events: all;"/></g><g class="node" transform="translate(532.6666666666666,242.5090909090909)"><title>R.size</title><line x1="0" x2="0" y1="0" y2="56.72727272727275" style="display: inline; stroke: rgb(0, 0, 0);"/><rect class="node-body" width="1" height="56.72727272727275" style="fill: none;"/><text class="node-value" dy=".35em" text-anchor="middle" transform="translate(0.5,28.363636363636374) rotate(-90)" style="display: none;"/><text class="node-title" dy=".35em" text-anchor="start" transform="translate(5,28.363636363636374)" style="display: inline;">R.size</text><rect class="node-click-target" x="-5" y="-5" width="10" height="61.72727272727275" style="fill: none; visibility: hidden; pointer-events: all;"/></g><g class="node" transform="translate(532.6666666666666,78)"><title>R.orientation</title><line x1="0" x2="0" y1="0" y2="56.72727272727272" style="display: inline; stroke: rgb(0, 0, 0);"/><rect class="node-body" width="1" height="56.72727272727272" style="fill: none;"/><text class="node-value" dy=".35em" text-anchor="middle" transform="translate(0.5,28.36363636363636) rotate(-90)" style="display: none;"/><text class="node-title" dy=".35em" text-anchor="start" transform="translate(5,28.36363636363636)" style="display: inline;">R.orientation</text><rect class="node-click-target" x="-5" y="-5" width="10" height="61.72727272727272" style="fill: none; visibility: hidden; pointer-events: all;"/></g><g class="node" transform="translate(266.3333333333333,567.2727272727274)"><title>1bookmarkleaflet</title><line x1="0" x2="0" y1="0" y2="7.090909090909122" style="display: inline; stroke: rgb(0, 0, 0);"/><rect class="node-body" width="1" height="7.090909090909122" style="fill: none;"/><text class="node-value" dy=".35em" text-anchor="middle" transform="translate(0.5,3.545454545454561) rotate(-90)" style="display: none;"/><text class="node-title" dy=".35em" text-anchor="start" transform="translate(5,3.545454545454561)" style="display: inline;">1bookmarkleaflet</text><rect class="node-click-target" x="-5" y="-5" width="10" height="12.090909090909122" style="fill: none; visibility: hidden; pointer-events: all;"/></g><g class="node" transform="translate(266.3333333333333,694.909090909091)"><title>8article</title><line x1="0" x2="0" y1="0" y2="7.090909090909122" style="display: inline; stroke: rgb(0, 0, 0);"/><rect class="node-body" width="1" height="7.090909090909122" style="fill: none;"/><text class="node-value" dy=".35em" text-anchor="middle" transform="translate(0.5,3.545454545454561) rotate(-90)" style="display: none;"/><text class="node-title" dy=".35em" text-anchor="start" transform="translate(5,3.545454545454561)" style="display: inline;">8article</text><rect class="node-click-target" x="-5" y="-5" width="10" height="12.090909090909122" style="fill: none; visibility: hidden; pointer-events: all;"/></g><g class="node" transform="translate(266.3333333333333,422.4155844155845)"><title>2examsheet</title><line x1="0" x2="0" y1="0" y2="7.090909090909065" style="display: inline; stroke: rgb(0, 0, 0);"/><rect class="node-body" width="1" height="7.090909090909065" style="fill: none;"/><text class="node-value" dy=".35em" text-anchor="middle" transform="translate(0.5,3.5454545454545325) rotate(-90)" style="display: none;"/><text class="node-title" dy=".35em" text-anchor="start" transform="translate(5,3.5454545454545325)" style="display: inline;">2examsheet</text><rect class="node-click-target" x="-5" y="-5" width="10" height="12.090909090909065" style="fill: none; visibility: hidden; pointer-events: all;"/></g><g class="node" transform="translate(266.3333333333333,78)"><title>11book</title><line x1="0" x2="0" y1="-5" y2="35.45454545454545" style="display: inline; stroke: rgb(0, 0, 0);"/><rect class="node-body" width="1" height="35.45454545454545" style="fill: none;"/><text class="node-value" dy=".35em" text-anchor="middle" transform="translate(0.5,17.727272727272727) rotate(-90)" style="display: none;"/><text class="node-title" dy=".35em" text-anchor="start" transform="translate(-4,-10)" style="display: inline;">11book</text><rect class="node-click-target" x="-5" y="-5" width="10" height="40.45454545454545" style="fill: none; visibility: hidden; pointer-events: all;"/></g><g class="node" transform="translate(266.3333333333333,505.48051948051955)"><title>7memo_post</title><line x1="0" x2="0" y1="0" y2="7.090909090909122" style="display: inline; stroke: rgb(0, 0, 0);"/><rect class="node-body" width="1" height="7.090909090909122" style="fill: none;"/><text class="node-value" dy=".35em" text-anchor="middle" transform="translate(0.5,3.545454545454561) rotate(-90)" style="display: none;"/><text class="node-title" dy=".35em" text-anchor="start" transform="translate(5,3.545454545454561)" style="display: inline;">7memo_post</text><rect class="node-click-target" x="-5" y="-5" width="10" height="12.090909090909122" style="fill: none; visibility: hidden; pointer-events: all;"/></g><g class="node" transform="translate(532.6666666666666,528.9818181818182)"><title>digital???</title><line x1="0" x2="0" y1="0" y2="14.18181818181813" style="display: inline; stroke: rgb(0, 0, 0);"/><rect class="node-body" width="1" height="14.18181818181813" style="fill: none;"/><text class="node-value" dy=".35em" text-anchor="middle" transform="translate(0.5,7.090909090909065) rotate(-90)" style="display: none;"/><text class="node-title" dy=".35em" text-anchor="end" transform="translate(-4,7.090909090909065)" style="display: inline;">digital???</text><rect class="node-click-target" x="-5" y="-5" width="10" height="19.18181818181813" style="fill: none; visibility: hidden; pointer-events: all;"/></g><g class="node" transform="translate(0,638.1818181818182)"><title>Modifiable</title><line x1="0" x2="0" y1="0" y2="63.81818181818187" style="display: inline; stroke: rgb(0, 0, 0);"/><rect class="node-body" width="1" height="63.81818181818187" style="fill: none;"/><text class="node-value" dy=".35em" text-anchor="middle" transform="translate(0.5,31.909090909090935) rotate(-90)" style="display: none;"/><text class="node-title" dy=".35em" text-anchor="end" transform="translate(-4,31.909090909090935)" style="display: inline;">Modifiable</text><rect class="node-click-target" x="-5" y="-5" width="10" height="68.81818181818187" style="fill: none; visibility: hidden; pointer-events: all;"/></g><g class="node" transform="translate(266.3333333333333,640.2077922077923)"><title>4letter_notice</title><line x1="0" x2="0" y1="0" y2="7.090909090909122" style="display: inline; stroke: rgb(0, 0, 0);"/><rect class="node-body" width="1" height="7.090909090909122" style="fill: none;"/><text class="node-value" dy=".35em" text-anchor="middle" transform="translate(0.5,3.545454545454561) rotate(-90)" style="display: none;"/><text class="node-title" dy=".35em" text-anchor="start" transform="translate(5,3.545454545454561)" style="display: inline;">4letter_notice</text><rect class="node-click-target" x="-5" y="-5" width="10" height="12.090909090909122" style="fill: none; visibility: hidden; pointer-events: all;"/></g><g class="node" transform="translate(266.3333333333333,658.4415584415585)"><title>5calendar</title><line x1="0" x2="0" y1="0" y2="7.090909090909122" style="display: inline; stroke: rgb(0, 0, 0);"/><rect class="node-body" width="1" height="7.090909090909122" style="fill: none;"/><text class="node-value" dy=".35em" text-anchor="middle" transform="translate(0.5,3.545454545454561) rotate(-90)" style="display: none;"/><text class="node-title" dy=".35em" text-anchor="start" transform="translate(5,3.545454545454561)" style="display: inline;">5calendar</text><rect class="node-click-target" x="-5" y="-5" width="10" height="12.090909090909122" style="fill: none; visibility: hidden; pointer-events: all;"/></g><g class="node" transform="translate(532.6666666666666,568.6909090909091)"><title>information_strength</title><line x1="0" x2="0" y1="0" y2="14.18181818181813" style="display: inline; stroke: rgb(0, 0, 0);"/><rect class="node-body" width="1" height="14.18181818181813" style="fill: none;"/><text class="node-value" dy=".35em" text-anchor="middle" transform="translate(0.5,7.090909090909065) rotate(-90)" style="display: none;"/><text class="node-title" dy=".35em" text-anchor="end" transform="translate(-4,7.090909090909065)" style="display: inline;">information_strength</text><rect class="node-click-target" x="-5" y="-5" width="10" height="19.18181818181813" style="fill: none; visibility: hidden; pointer-events: all;"/></g><g class="node" transform="translate(266.3333333333333,585.5064935064936)"><title>1calligraph</title><line x1="0" x2="0" y1="0" y2="7.090909090909122" style="display: inline; stroke: rgb(0, 0, 0);"/><rect class="node-body" width="1" height="7.090909090909122" style="fill: none;"/><text class="node-value" dy=".35em" text-anchor="middle" transform="translate(0.5,3.545454545454561) rotate(-90)" style="display: none;"/><text class="node-title" dy=".35em" text-anchor="start" transform="translate(5,3.545454545454561)" style="display: inline;">1calligraph</text><rect class="node-click-target" x="-5" y="-5" width="10" height="12.090909090909122" style="fill: none; visibility: hidden; pointer-events: all;"/></g><g class="node" transform="translate(266.3333333333333,217.79220779220782)"><title>1papercup</title><line x1="0" x2="0" y1="0" y2="35.45454545454544" style="display: inline; stroke: rgb(0, 0, 0);"/><rect class="node-body" width="1" height="35.45454545454544" style="fill: none;"/><text class="node-value" dy=".35em" text-anchor="middle" transform="translate(0.5,17.72727272727272) rotate(-90)" style="display: none;"/><text class="node-title" dy=".35em" text-anchor="start" transform="translate(5,17.72727272727272)" style="display: inline;">1papercup</text><rect class="node-click-target" x="-5" y="-5" width="10" height="40.45454545454544" style="fill: none; visibility: hidden; pointer-events: all;"/></g><g class="node" transform="translate(532.6666666666666,324.76363636363635)"><title>R.spatiality</title><line x1="0" x2="0" y1="0" y2="56.72727272727275" style="display: inline; stroke: rgb(0, 0, 0);"/><rect class="node-body" width="1" height="56.72727272727275" style="fill: none;"/><text class="node-value" dy=".35em" text-anchor="middle" transform="translate(0.5,28.363636363636374) rotate(-90)" style="display: none;"/><text class="node-title" dy=".35em" text-anchor="start" transform="translate(5,28.363636363636374)" style="display: inline;">R.spatiality</text><rect class="node-click-target" x="-5" y="-5" width="10" height="61.72727272727275" style="fill: none; visibility: hidden; pointer-events: all;"/></g><g class="node" transform="translate(532.6666666666666,608.4000000000001)"><title>organize_sticky</title><line x1="0" x2="0" y1="0" y2="14.18181818181813" style="display: inline; stroke: rgb(0, 0, 0);"/><rect class="node-body" width="1" height="14.18181818181813" style="fill: none;"/><text class="node-value" dy=".35em" text-anchor="middle" transform="translate(0.5,7.090909090909065) rotate(-90)" style="display: none;"/><text class="node-title" dy=".35em" text-anchor="end" transform="translate(-4,7.090909090909065)" style="display: inline;">organize_sticky</text><rect class="node-click-target" x="-5" y="-5" width="10" height="19.18181818181813" style="fill: none; visibility: hidden; pointer-events: all;"/></g><g class="node" transform="translate(799,659.4545454545454)"><title>user</title><line x1="0" x2="0" y1="0" y2="42.545454545454504" style="display: inline; stroke: rgb(0, 0, 0);"/><rect class="node-body" width="1" height="42.545454545454504" style="fill: none;"/><text class="node-value" dy=".35em" text-anchor="middle" transform="translate(0.5,21.272727272727252) rotate(-90)" style="display: none;"/><text class="node-title" dy=".35em" text-anchor="start" transform="translate(5,21.272727272727252)" style="display: inline;">user</text><rect class="node-click-target" x="-5" y="-5" width="10" height="47.545454545454504" style="fill: none; visibility: hidden; pointer-events: all;"/></g><g class="node" transform="translate(266.3333333333333,404.18181818181824)"><title>8poster</title><line x1="0" x2="0" y1="0" y2="7.090909090909065" style="display: inline; stroke: rgb(0, 0, 0);"/><rect class="node-body" width="1" height="7.090909090909065" style="fill: none;"/><text class="node-value" dy=".35em" text-anchor="middle" transform="translate(0.5,3.5454545454545325) rotate(-90)" style="display: none;"/><text class="node-title" dy=".35em" text-anchor="start" transform="translate(5,3.5454545454545325)" style="display: inline;">8poster</text><rect class="node-click-target" x="-5" y="-5" width="10" height="12.090909090909065" style="fill: none; visibility: hidden; pointer-events: all;"/></g><g class="node" transform="translate(266.3333333333333,603.7402597402598)"><title>1handcraft</title><line x1="0" x2="0" y1="0" y2="7.090909090909122" style="display: inline; stroke: rgb(0, 0, 0);"/><rect class="node-body" width="1" height="7.090909090909122" style="fill: none;"/><text class="node-value" dy=".35em" text-anchor="middle" transform="translate(0.5,3.545454545454561) rotate(-90)" style="display: none;"/><text class="node-title" dy=".35em" text-anchor="start" transform="translate(5,3.545454545454561)" style="display: inline;">1handcraft</text><rect class="node-click-target" x="-5" y="-5" width="10" height="12.090909090909122" style="fill: none; visibility: hidden; pointer-events: all;"/></g><g class="node" transform="translate(266.3333333333333,124.5974025974026)"><title>17package_container</title><line x1="0" x2="0" y1="0" y2="35.45454545454544" style="display: inline; stroke: rgb(0, 0, 0);"/><rect class="node-body" width="1" height="35.45454545454544" style="fill: none;"/><text class="node-value" dy=".35em" text-anchor="middle" transform="translate(0.5,17.72727272727272) rotate(-90)" style="display: none;"/><text class="node-title" dy=".35em" text-anchor="start" transform="translate(5,17.72727272727272)" style="display: inline;">17package_container</text><rect class="node-click-target" x="-5" y="-5" width="10" height="40.45454545454544" style="fill: none; visibility: hidden; pointer-events: all;"/></g><g class="node" transform="translate(532.6666666666666,687.818181818182)"><title>sticky</title><line x1="0" x2="0" y1="-5" y2="14.18181818181813" style="display: inline; stroke: rgb(0, 0, 0);"/><rect class="node-body" width="1" height="14.18181818181813" style="fill: none;"/><text class="node-value" dy=".35em" text-anchor="middle" transform="translate(0.5,7.090909090909065) rotate(-90)" style="display: none;"/><text class="node-title" dy=".35em" text-anchor="start" transform="translate(-4,-10)" style="display: inline;">sticky</text><rect class="node-click-target" x="-5" y="-5" width="10" height="19.18181818181813" style="fill: none; visibility: hidden; pointer-events: all;"/></g></g><g class="slice-titles"/></g></svg>